<svg width="50" height="50" viewBox="0 0 50 50" fill="none" xmlns="http://www.w3.org/2000/svg">
<path d="M15.8804 15.8803V2.77902L24.8131 11.7117L33.7458 2.77902V15.8803" stroke="#9BEC00" stroke-width="4" stroke-linecap="square" stroke-linejoin="round"/>
<path d="M33.7457 33.7457L33.7457 46.8469L24.813 37.9142L15.8804 46.8469L15.8804 33.7457" stroke="#9BEC00" stroke-width="4" stroke-linecap="square" stroke-linejoin="round"/>
<path d="M15.8804 33.7457L2.77911 33.7457L11.7118 24.813L2.77911 15.8803L15.8804 15.8803" stroke="#9BEC00" stroke-width="4" stroke-linecap="square" stroke-linejoin="round"/>
<path d="M33.7458 15.8803L46.847 15.8803L37.9144 24.813L46.847 33.7456L33.7458 33.7456" stroke="#9BEC00" stroke-width="4" stroke-linecap="square" stroke-linejoin="round"/>
<path d="M20.791 35.1351L10.272 39.4809L14.481 29.3458L4.34586 25.1368L14.8649 20.791" stroke="#F3FF90" stroke-width="4" stroke-linecap="square" stroke-linejoin="round"/>
<path d="M29.2091 14.8649L39.7281 10.519L35.5191 20.6542L45.6543 24.8632L35.1352 29.209" stroke="#F3FF90" stroke-width="4" stroke-linecap="square" stroke-linejoin="round"/>
<path d="M35.1351 29.209L39.481 39.7281L29.3458 35.519L25.1368 45.6542L20.791 35.1351" stroke="#F3FF90" stroke-width="4" stroke-linecap="square" stroke-linejoin="round"/>
<path d="M14.8649 20.791L10.519 10.2719L20.6542 14.4809L24.8632 4.3458L29.209 14.8648" stroke="#F3FF90" stroke-width="4" stroke-linecap="square" stroke-linejoin="round"/>
</svg>
